<?xml version="1.0" standalone="no"?><!DOCTYPE svg PUBLIC "-//W3C//DTD SVG 1.1//EN" "http://www.w3.org/Graphics/SVG/1.1/DTD/svg11.dtd"><svg t="1701525552985" class="icon" viewBox="0 0 1024 1024" version="1.1" xmlns="http://www.w3.org/2000/svg" p-id="6240" xmlns:xlink="http://www.w3.org/1999/xlink" width="200" height="200"><path d="M257.706667 696.96a21.333333 21.333333 0 0 0 11.946666-39.253333A840.32 840.32 0 0 1 106.666667 512c45.866667-53.76 210.773333-229.333333 405.333333-229.333333a374.186667 374.186667 0 0 1 135.466667 26.88 21.333333 21.333333 0 0 0 15.36-39.893334A420.266667 420.266667 0 0 0 512 240C298.666667 240 122.88 426.666667 73.813333 484.48a42.666667 42.666667 0 0 0 0 55.04 882.56 882.56 0 0 0 171.946667 153.813333 21.333333 21.333333 0 0 0 11.946667 3.626667zM949.973333 484.48a872.533333 872.533333 0 0 0-178.986666-158.506667A21.333333 21.333333 0 0 0 747.733333 362.666667a837.973333 837.973333 0 0 1 170.666667 149.333333c-45.866667 53.76-210.773333 229.333333-405.333333 229.333333a371.413333 371.413333 0 0 1-129.493334-24.533333 21.333333 21.333333 0 1 0-14.72 39.893333A413.44 413.44 0 0 0 512 784c213.333333 0 389.12-187.093333 438.186667-244.48a42.666667 42.666667 0 0 0-0.213334-55.04z" fill="#333333" p-id="6241"></path><path d="M512 604.586667a88.96 88.96 0 0 1-20.053333-2.133334l-8.533334-2.346666a21.333333 21.333333 0 0 0-26.88 13.653333A21.333333 21.333333 0 0 0 469.333333 640a91.946667 91.946667 0 0 0 12.586667 3.413333A135.68 135.68 0 0 0 640 470.4a21.333333 21.333333 0 0 0-40.746667 13.013333A92.8 92.8 0 0 1 512 604.586667zM512 419.413333a92.8 92.8 0 0 1 29.653333 4.693334 21.333333 21.333333 0 0 0 27.093334-13.226667A21.333333 21.333333 0 0 0 554.666667 384a135.466667 135.466667 0 0 0-178.56 128 146.346667 146.346667 0 0 0 5.973333 40.96 21.333333 21.333333 0 0 0 20.266667 15.146667 19.84 19.84 0 0 0 6.186666-1.066667 21.333333 21.333333 0 0 0 14.293334-26.453333 105.173333 105.173333 0 0 1-3.413334-28.586667A92.8 92.8 0 0 1 512 419.413333zM811.946667 212.053333a21.333333 21.333333 0 0 0-30.08 0L212.053333 781.866667a21.333333 21.333333 0 0 0 14.933334 36.48 21.333333 21.333333 0 0 0 15.146666-6.4l569.813334-569.813334a21.333333 21.333333 0 0 0 0-30.08z" fill="#333333" p-id="6242"></path></svg>